<?xml version="1.0" encoding="UTF-8"?><svg id="uuid-a4c30b9e-7266-429c-91fd-47fef4b01cf7" xmlns="http://www.w3.org/2000/svg" viewBox="0 0 412.02 411.18"><path d="M346.51,350.48c-18.14,18.7-40.06,33.92-64.16,44.29-24.09,10.41-50.32,16-76.7,16.38-26.39,.39-52.92-4.42-77.59-14.23-24.69-9.77-47.45-24.56-66.58-43.16-19.08-18.65-34.54-41.12-45.04-65.8C5.9,263.31,.3,236.51,.01,209.6c-.29-26.91,4.73-53.94,14.81-79.04,10.08-25.15,25.12-48.14,44.27-67.68,18.77-19.26,41.73-35.15,66.8-45.84C150.96,6.24,178.21,.4,205.65,0c27.42-.2,54.97,4.92,80.45,15.37,25.52,10.53,48.55,26.24,67.94,46.04,18.86,19.5,34.26,43.05,44.13,68.44,9.8,25.45,14.67,52.73,13.74,79.74-.76,27.01-7.12,53.66-18.32,77.85-11.44,24.05-27.33,45.84-47.06,63.03l-1.65-1.65c34.45-38.62,52.35-89.49,50.64-139.23-1.56-49.83-22.62-97.85-58.16-131.92-34.73-33.92-82.77-54.29-131.71-54.61-24.43-.41-49.02,3.99-71.86,13.05-22.88,9.1-43.79,22.68-61.68,40.1-17.53,17.11-31.96,37.99-41.67,60.79-9.77,22.82-14.99,47.64-15.27,72.59-.29,24.95,4.34,50,13.66,73.25,9.29,23.27,23.29,44.67,40.9,62.68,17.52,18.09,38.64,32.76,61.9,42.79,23.23,10.05,48.55,15.47,74.03,15.85,25.48,.39,51.1-4.25,74.92-13.7,23.84-9.42,45.8-23.67,64.32-41.66l1.63,1.67Z"/><path d="M349.5,345.4s1.02,.68,2.27,1.51,4.08,1.45,6.31,1.39c2.22-.07,10.11-4.61,17.54-10.11s12.84-13.38,12.03-17.51c-.81-4.14-3.86-9.1-6.76-11.03-2.91-1.93-4.39-2.91-3.28-2.17,1.11,.74-.37-.25-3.28-2.18-2.91-1.93-8.66-2.82-12.79-1.96-4.13,.86-9.29,8.9-11.48,17.88-2.18,8.98-3.32,18.02-2.52,20.1,.81,2.07,2.48,4.45,3.73,5.28,1.25,.83,2.27,1.5,2.27,1.5"/></svg>